HIERARCHY
ROOT Hips
{
  OFFSET -35.2597 29.1586 114.425
  CHANNELS 6 Xposition Yposition Zposition Zrotation Xrotation Yrotation
  JOINT LeftUpLeg
  {
    OFFSET 8.64259 1.95398 -2.38835
    CHANNELS 3 Zrotation Xrotation Yrotation
    JOINT LeftLeg
    {
      OFFSET 43.7702 0 0
      CHANNELS 3 Zrotation Xrotation Yrotation
      JOINT LeftFoot
      {
        OFFSET 40.6238 0 0
        CHANNELS 3 Zrotation Xrotation Yrotation
        JOINT LeftToeBase
        {
          OFFSET 12.7242 0 0
          CHANNELS 3 Zrotation Xrotation Yrotation
          End Site
          {
            OFFSET 0 0 0
          }
        }
      }
    }
  }
  JOINT RightUpLeg
  {
    OFFSET -8.2249 1.95398 -2.59336
    CHANNELS 3 Zrotation Xrotation Yrotation
    JOINT RightLeg
    {
      OFFSET 43.5653 0 0
      CHANNELS 3 Zrotation Xrotation Yrotation
      JOINT RightFoot
      {
        OFFSET 40.6238 0 0
        CHANNELS 3 Zrotation Xrotation Yrotation
        JOINT RightToeBase
        {
          OFFSET 12.7242 0 0
          CHANNELS 3 Zrotation Xrotation Yrotation
          End Site
          {
            OFFSET 0 0 0
          }
        }
      }
    }
  }
  JOINT Spine
  {
    OFFSET 0.165834 0.87714 6.61349
    CHANNELS 3 Zrotation Xrotation Yrotation
    JOINT Spine1
    {
      OFFSET 7.38963 1.71661e-005 0
      CHANNELS 3 Zrotation Xrotation Yrotation
      JOINT Spine2
      {
        OFFSET 11.9445 1.14441e-005 0
        CHANNELS 3 Zrotation Xrotation Yrotation
        JOINT Spine3
        {
          OFFSET 14.7254 4.19617e-005 0
          CHANNELS 3 Zrotation Xrotation Yrotation
          JOINT Spine4
          {
            OFFSET 10.9679 0 0
            CHANNELS 3 Zrotation Xrotation Yrotation
            JOINT RightShoulder
            {
              OFFSET 2.46616 -1.6653 3.69651
              CHANNELS 3 Zrotation Xrotation Yrotation
              JOINT RightArm
              {
                OFFSET 13.0012 0 0
                CHANNELS 3 Zrotation Xrotation Yrotation
                JOINT RightForeArm
                {
                  OFFSET 28.7848 1.62311e-005 0
                  CHANNELS 3 Zrotation Xrotation Yrotation
                  JOINT RightHand
                  {
                    OFFSET 26.5688 1.62095e-005 0
                    CHANNELS 3 Zrotation Xrotation Yrotation
                    End Site
                    {
                      OFFSET 0 0 0
                    }
                  }
                }
              }
            }
            JOINT LeftShoulder
            {
              OFFSET 2.38034 -1.29275 -3.7523
              CHANNELS 3 Zrotation Xrotation Yrotation
              JOINT LeftArm
              {
                OFFSET 16.3182 6.07031e-005 0
                CHANNELS 3 Zrotation Xrotation Yrotation
                JOINT LeftForeArm
                {
                  OFFSET 27.0901 0 0
                  CHANNELS 3 Zrotation Xrotation Yrotation
                  JOINT LeftHand
                  {
                    OFFSET 24.5451 1.51738e-005 0
                    CHANNELS 3 Zrotation Xrotation Yrotation
                    End Site
                    {
                      OFFSET 0 0 0
                    }
                  }
                }
              }
            }
            JOINT Neck
            {
              OFFSET 5.0226 -0.0266342 0
              CHANNELS 3 Zrotation Xrotation Yrotation
              JOINT Head
              {
                OFFSET 6.69364 2.86102e-005 0
                CHANNELS 3 Zrotation Xrotation Yrotation
                End Site
                {
                  OFFSET 0 0 0
                }
              }
            }
          }
        }
      }
    }
  }
}
MOTION
Frames:	15
Frame Time:	0.0416667
6.69656 100.357 25.2162 -141.356 -83.8274 -141.834 -174.596 -3.35887 89.2633 -11.371 6.1996 0.142274 69.9844 6.45523 0.153198 19.4728 -8.74013 6.32382 173.114 -2.09433 88.2126 -13.9223 -11.5208 -0.455797 68.1 -5.25267 1.90784 26.8343 -0.172826 3.19282 0.12405 7.42501 -90.052 12.024 0.222146 -0.12801 0.353057 0.216298 -0.13768 -22.1822 0.250344 -0.0553287 -2.1696 0.250346 -0.0553397 88.6809 -36.2949 -106.944 45.949 5.96856 -6.42476 -6.08754 -51.7496 -5.97402 -23.3501 2.70238 -18.6103 -85.2276 -57.4926 86.8318 -28.3912 -11.0459 -16.2362 3.92894 45.8567 -5.00766 3.13872 -0.217397 -7.00561 8.19141 0.181672 -1.21165 -8.09571 0.290954 2.32471 
6.6987 100.351 25.2136 -139.926 -83.767 -140.356 -174.804 -3.28563 89.123 -11.6407 5.41356 0.396744 70.9791 6.71641 -1.4349 18.2582 -11.497 9.29696 173.306 -2.02765 88.2821 -13.8495 -13.025 -0.64894 67.3921 -4.91897 1.39253 26.8858 0.0489353 2.41722 0.212985 7.40722 -90.1084 12.0598 0.372268 -0.256908 0.388913 0.360598 -0.273056 -22.1466 0.432267 -0.133151 -2.13393 0.432267 -0.133154 89.2116 -35.7477 -106.172 46.1695 5.92045 -6.24725 -6.26924 -53.5543 -6.10879 -24.675 2.6381 -17.5226 -85.7639 -58.3647 86.1954 -28.1564 -11.1508 -16.3586 3.95175 46.1273 -5.03226 3.93137 -0.201794 -6.35629 7.50264 0.142313 -0.526886 -7.1297 0.156457 1.73895 
6.72361 100.341 25.1783 -134.885 -83.5901 -135.069 -174.642 -2.97084 89.3327 -11.7918 5.06488 0.278094 71.2436 6.76498 -1.30113 18.3923 -11.5178 9.45743 173.6 -1.82935 88.6044 -13.6725 -13.2219 -0.763853 67.455 -5.13865 0.873722 26.2033 -0.141209 3.862 0.322163 7.37647 -90.1669 12.1219 0.561506 -0.39514 0.451016 0.543569 -0.419475 -22.085 0.654305 -0.20811 -2.0723 0.654293 -0.208119 89.6145 -35.4324 -105.543 46.4268 5.68587 -6.67727 -6.27771 -53.6344 -6.11509 -23.1456 2.12668 -15.8885 -86.1148 -58.6935 85.7548 -28.5085 -10.9992 -16.1236 3.91996 45.7475 -4.99782 6.94774 -0.174496 -5.46018 7.09886 -0.139051 -0.614368 -6.7926 -0.13047 2.35294 
6.73205 100.354 25.0773 -135.405 -83.6289 -135.731 -174.629 -2.9299 89.2442 -11.8281 5.24089 0.19156 71.1578 6.71746 -1.21277 18.1128 -11.2751 8.82087 173.542 -1.76784 88.4738 -13.6745 -13.2352 -0.776291 67.4374 -5.11185 1.0397 26.4358 -0.0354345 3.24655 0.306578 7.38017 -90.1611 12.1144 0.533325 -0.380245 0.443505 0.516074 -0.403357 -22.0924 0.622944 -0.202376 -2.07971 0.622944 -0.202382 89.5436 -35.3325 -105.706 46.4049 5.72008 -6.59045 -6.26727 -53.5316 -6.10692 -23.1019 2.1695 -16.1114 -86.0874 -58.8338 85.8101 -29.2227 -10.6659 -15.9098 3.90499 45.533 -4.98295 11.9396 0.053166 -3.21021 7.37543 -0.0135308 -0.234968 -7.38194 -0.064625 1.79872 
6.75946 100.378 25.0389 -135.399 -83.5085 -135.757 -174.669 -3.14619 89.1781 -11.5222 5.21937 0.204837 70.9968 6.73688 -1.02968 18.041 -11.3402 8.84554 173.635 -1.64372 88.4639 -14.1028 -12.9618 -0.909922 67.1119 -4.61736 2.07005 27.3391 -0.0049239 1.99784 0.316259 7.38822 -90.1697 12.0984 0.548587 -0.398892 0.427492 0.530494 -0.422663 -22.1084 0.643103 -0.215577 -2.09578 0.643103 -0.215585 89.5526 -35.15 -105.752 46.4676 5.71862 -6.49704 -6.22176 -53.1585 -6.07791 -22.6129 2.17661 -16.397 -86.1478 -58.875 85.7327 -30.2193 -10.2139 -15.5408 3.88322 45.2139 -4.96088 18.1313 0.553341 -0.81116 7.56992 -0.0101047 -0.11687 -7.75148 -0.0802503 1.61667 
6.82727 100.367 25.0189 -135.504 -83.6166 -135.88 -174.748 -2.93525 89.1028 -11.8126 5.0351 0.27309 71.2338 6.76239 -1.42671 17.8821 -11.4062 8.78516 173.514 -1.66739 88.3995 -13.9017 -13.2853 -0.814704 67.3486 -4.98434 0.95353 27.3093 -0.177283 2.59573 0.284619 7.35172 -90.1573 12.1713 0.491329 -0.368457 0.500379 0.474638 -0.389736 -22.0354 0.579353 -0.20376 -2.02271 0.57935 -0.203761 89.3642 -35.1416 -106.101 46.5663 5.81509 -6.00155 -6.20822 -53.0717 -6.06638 -23.404 2.35966 -16.8907 -86.0038 -58.4856 85.881 -31.4605 -9.69136 -14.8514 3.82874 44.5079 -4.90314 24.5429 1.35388 1.65543 7.21006 0.00894568 -0.438078 -7.64248 -0.0146325 1.95064 
6.83107 100.368 25.0314 -133.417 -83.5622 -133.485 -174.591 -2.72412 89.3968 -11.9293 5.06678 0.216344 71.1831 6.71817 -1.17773 18.2755 -11.331 9.06504 173.69 -1.66749 88.6901 -13.6953 -13.1532 -0.788835 67.3365 -4.96039 1.28087 26.4846 0.0160458 3.03282 0.29482 7.33856 -90.1926 12.1977 0.494854 -0.439487 0.526737 0.475036 -0.460851 -22.0089 0.604063 -0.270438 -1.99625 0.604054 -0.270453 89.2376 -35.1339 -106.337 46.4547 5.80357 -6.21625 -6.1746 -52.8803 -6.03794 -22.212 2.14979 -16.4744 -85.9315 -58.4683 85.9779 -32.4092 -9.28203 -14.4636 3.82079 44.3924 -4.89501 30.957 2.38662 3.89049 7.10714 -0.00735529 -0.465976 -7.5092 -0.0270949 2.02133 
6.73875 100.371 24.9825 -132.154 -83.678 -132.303 -174.592 -2.5104 89.4092 -11.937 5.04286 0.174604 71.2044 6.72281 -1.29979 17.9986 -11.3078 8.75622 173.802 -1.41833 88.7516 -13.7372 -13.1224 -0.843459 66.9374 -4.62442 1.68286 27.1926 -0.0469202 2.32585 0.298868 7.32703 -90.1859 12.2207 0.505976 -0.427579 0.549817 0.486665 -0.449443 -21.9859 0.611088 -0.255742 -1.97323 0.611089 -0.255743 89.3164 -35.1844 -106.174 46.3418 5.83814 -6.27036 -6.22444 -53.1588 -6.07589 -22.107 2.15079 -16.5327 -85.9803 -58.3085 85.891 -33.2451 -8.91341 -14.2023 3.82464 44.476 -4.90274 36.3377 3.37277 5.46383 7.53843 -0.0238022 -0.44783 -8.06853 -0.0564425 2.03783 
6.76521 100.362 25.0543 -133.512 -83.495 -133.734 -174.725 -2.84559 89.2354 -11.863 4.41286 0.337136 71.2535 6.63521 -1.60275 18.0396 -10.9376 8.25069 173.63 -1.7496 88.5681 -13.6612 -12.9743 -0.81748 67.9745 -5.42099 1.2451 25.6711 0.301768 3.14715 0.302055 7.35037 -90.1809 12.1741 0.514829 -0.418175 0.503144 0.495921 -0.440431 -22.0326 0.616703 -0.244115 -2.01996 0.616699 -0.244119 89.427 -35.0875 -106.005 46.6172 5.74647 -6.16496 -6.22888 -53.1608 -6.07807 -22.876 2.19609 -16.359 -86.1003 -58.1622 85.7072 -33.7835 -8.715 -13.808 3.84201 44.6576 -4.91827 40.2944 4.07601 6.27173 7.26715 -0.167721 -0.744627 -7.65503 -0.167944 2.6771 
6.73215 100.346 25.0897 -132.56 -83.573 -132.925 -174.793 -2.79665 89.1101 -11.774 4.62371 0.315328 71.1741 6.65539 -1.53675 18.4541 -11.0804 8.87242 173.612 -1.51926 88.4643 -13.7996 -13.3652 -0.839642 67.1939 -4.79278 1.66944 27.2582 0.0329914 1.9723 0.304533 7.33828 -90.1822 12.1982 0.519046 -0.421531 0.52727 0.499993 -0.443968 -22.0085 0.621736 -0.246041 -1.99583 0.621735 -0.246046 89.4517 -35.0733 -105.964 46.5706 5.76887 -6.15846 -6.20433 -52.9286 -6.06021 -23.0693 2.21951 -16.3768 -86.1446 -58.4506 85.6832 -33.7616 -8.72763 -13.7957 3.8352 44.5716 -4.91101 41.777 4.46396 6.83134 7.27689 -0.0376288 -0.542768 -7.57934 -0.0796973 2.6933 
6.69089 100.338 25.1508 -133.918 -83.6527 -134.376 -174.767 -2.96037 89.0705 -11.555 4.83147 0.255409 71.0276 6.66871 -1.47965 18.7446 -11.2662 9.43951 173.425 -1.55483 88.3179 -13.9699 -13.2272 -0.738649 67.6531 -5.11858 1.2665 26.4445 -0.0389032 3.25468 0.29131 7.34512 -90.1784 12.1844 0.494682 -0.410964 0.513494 0.476105 -0.432345 -22.0222 0.595311 -0.243289 -2.00955 0.595318 -0.243292 89.4346 -35.1549 -105.968 46.5436 5.79705 -6.10059 -6.2355 -53.2305 -6.0833 -23.6647 2.1998 -15.9852 -86.1539 -58.5828 85.6873 -33.6171 -8.79021 -13.8415 3.8593 44.8695 -4.9367 41.3055 4.46706 6.97707 7.71299 -0.0747833 -0.276758 -8.29605 -0.148564 2.09083 
6.60708 100.37 25.1659 -134.606 -83.6954 -135.021 -174.611 -3.01423 89.2437 -11.5249 5.16779 0.146891 71.0899 6.8086 -1.32495 18.2221 -11.3941 9.10555 173.562 -1.59006 88.4906 -14.0742 -12.9771 -0.804199 67.5522 -4.99222 1.35632 26.2722 0.0634683 3.14728 0.296545 7.34428 -90.1777 12.1862 0.505354 -0.410793 0.515261 0.486787 -0.432651 -22.0205 0.605453 -0.239922 -2.00782 0.605445 -0.239933 89.3534 -35.3728 -106.042 46.2441 5.93516 -6.07737 -6.2926 -53.7763 -6.12634 -23.3376 2.24351 -16.3718 -86.1507 -58.3785 85.6654 -33.2917 -8.93194 -13.9418 3.85105 44.758 -4.92829 37.8906 3.67295 5.88794 7.57288 -0.196184 -0.51309 -8.14809 -0.22178 2.17296 
6.61564 100.353 25.1969 -136.955 -83.9371 -137.383 -174.716 -2.90443 89.2061 -11.7691 5.46372 0.26811 71.1557 6.9 -1.25406 18.2833 -11.2059 8.88825 173.42 -1.62542 88.4234 -14.0411 -12.8275 -0.651259 67.4099 -4.89735 1.32595 27.292 -0.127497 2.45787 0.268612 7.35366 -90.1998 12.1673 0.439431 -0.447415 0.496373 0.419314 -0.466326 -22.0391 0.553573 -0.294658 -2.02642 0.553578 -0.294665 89.353 -35.3285 -106.058 46.2424 6.04094 -5.70073 -6.19601 -52.8427 -6.0539 -24.9759 2.76458 -17.9754 -86.2625 -58.74 85.5588 -32.0762 -9.45684 -14.3818 3.85565 44.7929 -4.9339 30.5515 2.22466 3.45375 7.57959 -0.117834 -0.11139 -8.04483 -0.207148 1.87482 
6.66065 100.315 25.3303 -136.793 -83.8086 -137.342 -174.655 -3.01027 89.1193 -11.9247 5.22542 0.142793 71.3726 7.08275 -1.47876 18.5186 -11.2003 9.11444 173.319 -1.68657 88.2258 -14.1628 -13.2761 -0.69399 67.9442 -5.30763 0.88396 26.1802 0.118308 3.0879 0.290333 7.38892 -90.2037 12.0969 0.48098 -0.459256 0.425994 0.460292 -0.479978 -22.1096 0.596753 -0.293472 -2.09692 0.59676 -0.293472 89.4352 -35.3503 -105.899 45.9284 6.02683 -6.24641 -6.13888 -52.2875 -6.01259 -21.9594 2.51732 -18.523 -86.3162 -58.8689 85.5021 -30.1479 -10.3107 -15.0556 3.88936 45.1876 -4.97067 18.4392 0.397738 -2.09691 7.6621 -0.0680725 -0.0467387 -7.8313 -0.188219 2.2136 
6.76477 100.267 25.2766 -140.814 -84.0986 -141.684 -174.505 -2.80317 88.9732 -12.322 5.89759 -0.231954 71.3838 7.57328 -1.19695 18.7381 -10.9293 8.93213 173.049 -1.2563 87.8306 -15.1041 -12.9887 -0.638091 68.0431 -5.09778 1.20581 26.8067 0.00918457 2.64396 0.246574 7.41464 -90.1956 12.0452 0.397905 -0.433656 0.374257 0.378427 -0.450755 -22.1611 0.509829 -0.294022 -2.14844 0.50984 -0.294025 89.5386 -35.2853 -105.732 45.9862 6.05895 -6.03862 -6.15995 -52.4428 -6.02388 -23.5844 2.88476 -19.3575 -86.3077 -58.7931 85.5039 -28.1578 -11.2185 -15.7002 3.90393 45.3606 -4.98672 5.3307 -0.440448 -8.97716 7.94513 0.158081 0.261504 -8.22542 -0.054657 2.4804 
